REM DIRINDEX 1\2,1\3,1\4,1\5,1\6
REM DIRNAME cjc091,folder01,folder02,folder03,folder04,folder05
TITLE ""
FILE "CD1-65.mp3" MP3
  TRACK 01 AUDIO
    TITLE "6:cjc091_1282"
    INDEX 01 00:00:00
  TRACK 02 AUDIO
    TITLE "0:"
    INDEX 01 00:02:02
  TRACK 03 AUDIO
    TITLE "2:cjc091_1283"
    INDEX 01 00:03:23
  TRACK 04 AUDIO
    TITLE "0:"
    INDEX 01 00:04:46
  TRACK 05 AUDIO
    TITLE "3:cjc091_1284"
    INDEX 01 00:04:66
  TRACK 06 AUDIO
    TITLE "0:"
    INDEX 01 00:06:59
  TRACK 07 AUDIO
    TITLE "4:cjc091_1285"
    INDEX 01 00:07:13
  TRACK 08 AUDIO
    TITLE "0:"
    INDEX 01 00:09:45
  TRACK 09 AUDIO
    TITLE "2:cjc091_1286"
    INDEX 01 00:10:65
  TRACK 10 AUDIO
    TITLE "0:"
    INDEX 01 00:12:14
  TRACK 11 AUDIO
    TITLE "3:cjc091_1287"
    INDEX 01 00:12:24
  TRACK 12 AUDIO
    TITLE "0:"
    INDEX 01 00:13:35
  TRACK 13 AUDIO
    TITLE "4:cjc091_1288"
    INDEX 01 00:13:67
  TRACK 14 AUDIO
    TITLE "0:"
    INDEX 01 00:16:04
  TRACK 15 AUDIO
    TITLE "2:cjc091_1289"
    INDEX 01 00:17:27
  TRACK 16 AUDIO
    TITLE "0:"
    INDEX 01 00:19:26
  TRACK 17 AUDIO
    TITLE "3:cjc091_1290"
    INDEX 01 00:19:58
  TRACK 18 AUDIO
    TITLE "0:"
    INDEX 01 00:22:17
  TRACK 19 AUDIO
    TITLE "4:cjc091_1291"
    INDEX 01 00:22:40
  TRACK 20 AUDIO
    TITLE "0:"
    INDEX 01 00:25:23
  TRACK 21 AUDIO
    TITLE "2:cjc091_1292"
    INDEX 01 00:26:34
  TRACK 22 AUDIO
    TITLE "0:"
    INDEX 01 00:28:51
  TRACK 23 AUDIO
    TITLE "3:cjc091_1293"
    INDEX 01 00:28:70
  TRACK 24 AUDIO
    TITLE "0:"
    INDEX 01 00:31:37
  TRACK 25 AUDIO
    TITLE "4:cjc091_1294"
    INDEX 01 00:31:55
  TRACK 26 AUDIO
    TITLE "0:"
    INDEX 01 00:37:20
  TRACK 27 AUDIO
    TITLE "2:cjc091_1295"
    INDEX 01 00:38:26
  TRACK 28 AUDIO
    TITLE "0:"
    INDEX 01 00:40:17
  TRACK 29 AUDIO
    TITLE "3:cjc091_1296"
    INDEX 01 00:40:36
  TRACK 30 AUDIO
    TITLE "0:"
    INDEX 01 00:41:57
  TRACK 31 AUDIO
    TITLE "4:cjc091_1297"
    INDEX 01 00:42:06
  TRACK 32 AUDIO
    TITLE "0:"
    INDEX 01 00:47:07
  TRACK 33 AUDIO
    TITLE "2:cjc091_1298"
    INDEX 01 00:48:20
  TRACK 34 AUDIO
    TITLE "0:"
    INDEX 01 00:49:57
  TRACK 35 AUDIO
    TITLE "3:cjc091_1299"
    INDEX 01 00:49:61
  TRACK 36 AUDIO
    TITLE "0:"
    INDEX 01 00:51:09
  TRACK 37 AUDIO
    TITLE "4:cjc091_1300"
    INDEX 01 00:51:26
  TRACK 38 AUDIO
    TITLE "0:"
    INDEX 01 00:55:22
  TRACK 39 AUDIO
    TITLE "2:cjc091_1301"
    INDEX 01 00:56:35
  TRACK 40 AUDIO
    TITLE "0:"
    INDEX 01 00:58:09
  TRACK 41 AUDIO
    TITLE "3:cjc091_1302"
    INDEX 01 00:58:17
  TRACK 42 AUDIO
    TITLE "0:"
    INDEX 01 01:00:27
  TRACK 43 AUDIO
    TITLE "4:cjc091_1303"
    INDEX 01 01:00:49
  TRACK 44 AUDIO
    TITLE "0:"
    INDEX 01 01:08:50
  TRACK 45 AUDIO
    TITLE "2:cjc091_1304"
    INDEX 01 01:09:63
  TRACK 46 AUDIO
    TITLE "0:"
    INDEX 01 01:11:27
  TRACK 47 AUDIO
    TITLE "3:cjc091_1305"
    INDEX 01 01:11:47
  TRACK 48 AUDIO
    TITLE "0:"
    INDEX 01 01:13:55
  TRACK 49 AUDIO
    TITLE "4:cjc091_1306"
    INDEX 01 01:14:00
  TRACK 50 AUDIO
    TITLE "0:"
    INDEX 01 01:18:31
  TRACK 51 AUDIO
    TITLE "2:cjc091_1307"
    INDEX 01 01:19:48
  TRACK 52 AUDIO
    TITLE "0:"
    INDEX 01 01:21:02
  TRACK 53 AUDIO
    TITLE "3:cjc091_1308"
    INDEX 01 01:21:23
  TRACK 54 AUDIO
    TITLE "0:"
    INDEX 01 01:23:18
  TRACK 55 AUDIO
    TITLE "4:cjc091_1309"
    INDEX 01 01:23:38
  TRACK 56 AUDIO
    TITLE "0:"
    INDEX 01 01:26:05
  TRACK 57 AUDIO
    TITLE "2:cjc091_1310"
    INDEX 01 01:27:16
  TRACK 58 AUDIO
    TITLE "0:"
    INDEX 01 01:28:63
  TRACK 59 AUDIO
    TITLE "3:cjc091_1311"
    INDEX 01 01:29:13
  TRACK 60 AUDIO
    TITLE "0:"
    INDEX 01 01:30:73
  TRACK 61 AUDIO
    TITLE "4:cjc091_1312"
    INDEX 01 01:31:18
  TRACK 62 AUDIO
    TITLE "0:"
    INDEX 01 01:36:17
  TRACK 63 AUDIO
    TITLE "2:cjc091_1313"
    INDEX 01 01:37:22
  TRACK 64 AUDIO
    TITLE "0:"
    INDEX 01 01:38:42
  TRACK 65 AUDIO
    TITLE "3:cjc091_1314"
    INDEX 01 01:38:59
  TRACK 66 AUDIO
    TITLE "0:"
    INDEX 01 01:40:60
  TRACK 67 AUDIO
    TITLE "4:cjc091_1315"
    INDEX 01 01:41:03
  TRACK 68 AUDIO
    TITLE "0:"
    INDEX 01 01:44:62
  TRACK 69 AUDIO
    TITLE "2:cjc091_1316"
    INDEX 01 01:45:73
  TRACK 70 AUDIO
    TITLE "0:"
    INDEX 01 01:47:29
  TRACK 71 AUDIO
    TITLE "3:cjc091_1317"
    INDEX 01 01:47:46
  TRACK 72 AUDIO
    TITLE "0:"
    INDEX 01 01:49:12
  TRACK 73 AUDIO
    TITLE "4:cjc091_1318"
    INDEX 01 01:49:33
  TRACK 74 AUDIO
    TITLE "0:"
    INDEX 01 01:53:63
  TRACK 75 AUDIO
    TITLE "2:cjc091_1319"
    INDEX 01 01:55:03
  TRACK 76 AUDIO
    TITLE "0:"
    INDEX 01 01:56:30
  TRACK 77 AUDIO
    TITLE "3:cjc091_1320"
    INDEX 01 01:56:41
  TRACK 78 AUDIO
    TITLE "0:"
    INDEX 01 01:57:58
  TRACK 79 AUDIO
    TITLE "4:cjc091_1321"
    INDEX 01 01:58:01
  TRACK 80 AUDIO
    TITLE "0:"
    INDEX 01 02:02:50
  TRACK 81 AUDIO
    TITLE "2:cjc091_1322"
    INDEX 01 02:03:59
  TRACK 82 AUDIO
    TITLE "0:"
    INDEX 01 02:05:31
  TRACK 83 AUDIO
    TITLE "3:cjc091_1323"
    INDEX 01 02:05:48
  TRACK 84 AUDIO
    TITLE "0:"
    INDEX 01 02:06:59
  TRACK 85 AUDIO
    TITLE "4:cjc091_1324"
    INDEX 01 02:07:08
  TRACK 86 AUDIO
    TITLE "0:"
    INDEX 01 02:09:68
  TRACK 87 AUDIO
    TITLE "2:cjc091_1325"
    INDEX 01 02:11:06
  TRACK 88 AUDIO
    TITLE "0:"
    INDEX 01 02:12:48
  TRACK 89 AUDIO
    TITLE "3:cjc091_1326"
    INDEX 01 02:12:50
  TRACK 90 AUDIO
    TITLE "0:"
    INDEX 01 02:13:65
  TRACK 91 AUDIO
    TITLE "4:cjc091_1327"
    INDEX 01 02:14:08
  TRACK 92 AUDIO
    TITLE "0:"
    INDEX 01 02:18:35
